# xmcd
#
# Track frame offsets:
#	150
#	18656
#	42065
#	61605
#	80576
#	96590
#	119925
#	145099
#	165933
#	181345
#	200198
#	217870
#
# Disc length: 3219 seconds
#
# Revision: 0
# Processed by: cddbd v1.5.2PL0 Copyright (c) Steve Scherf et al.
# Submitted via: EZCDAudioConverter 7.1.5.1
#
DISCID=a80c910c
DTITLE=腾格尔 - TENG GEER
DYEAR=2001
DGENRE=
TTITLE0=嘎达梅林
TTITLE1=天堂
TTITLE2=梦
TTITLE3=怀念战友
TTITLE4=独白
TTITLE5=苍马
TTITLE6=蒙古人
TTITLE7=父亲和我
TTITLE8=我们的家园
TTITLE9=乡愁
TTITLE10=四十岁
TTITLE11=苍狼大地
EXTD=
EXTT0=
EXTT1=
EXTT2=
EXTT3=
EXTT4=
EXTT5=
EXTT6=
EXTT7=
EXTT8=
EXTT9=
EXTT10=
EXTT11=
PLAYORDER=
